<svg xmlns="http://www.w3.org/2000/svg" viewBox="0 0 320 32" width="320" height="32"><defs><style>.shadow { opacity: 0.3; }.blue { fill: #1e40af; }.green { fill: #059669; }</style></defs><!-- Drop shadows --><rect x="3" y="19" width="10" height="10" rx="1" class="shadow"/><rect x="15" y="19" width="10" height="10" rx="1" class="shadow"/><rect x="27" y="19" width="10" height="10" rx="1" class="shadow"/><rect x="39" y="19" width="10" height="10" rx="1" class="shadow"/><rect x="51" y="19" width="10" height="10" rx="1" class="shadow"/><rect x="63" y="19" width="10" height="10" rx="1" class="shadow"/><rect x="75" y="19" width="10" height="10" rx="1" class="shadow"/><rect x="87" y="19" width="10" height="10" rx="1" class="shadow"/><!-- Main squares --><rect x="2" y="18" width="10" height="10" rx="1" class="blue"/><rect x="14" y="18" width="10" height="10" rx="1" class="green"/><rect x="26" y="18" width="10" height="10" rx="1" class="blue"/><rect x="38" y="18" width="10" height="10" rx="1" class="green"/><rect x="50" y="18" width="10" height="10" rx="1" class="blue"/><rect x="62" y="18" width="10" height="10" rx="1" class="green"/><rect x="74" y="18" width="10" height="10" rx="1" class="blue"/><rect x="86" y="18" width="10" height="10" rx="1" class="green"/><!-- Letters --><text x="7" y="26" font-family="Arial, sans-serif" font-size="6" font-weight="bold" fill="white" text-anchor="middle">Q</text><text x="19" y="26" font-family="Arial, sans-serif" font-size="6" font-weight="bold" fill="white" text-anchor="middle">U</text><text x="31" y="26" font-family="Arial, sans-serif" font-size="6" font-weight="bold" fill="white" text-anchor="middle">I</text><text x="43" y="26" font-family="Arial, sans-serif" font-size="6" font-weight="bold" fill="white" text-anchor="middle">Z</text><text x="55" y="26" font-family="Arial, sans-serif" font-size="6" font-weight="bold" fill="white" text-anchor="middle">K</text><text x="67" y="26" font-family="Arial, sans-serif" font-size="6" font-weight="bold" fill="white" text-anchor="middle">N</text><text x="79" y="26" font-family="Arial, sans-serif" font-size="6" font-weight="bold" fill="white" text-anchor="middle">O</text><text x="91" y="26" font-family="Arial, sans-serif" font-size="6" font-weight="bold" fill="white" text-anchor="middle">W</text></svg> 
